<mxfile host="app.diagrams.net" modified="2023-03-17T12:04:38.429Z" agent="5.0 (X11; Ubuntu)" etag="4wDqo4l7f2kOcesMZtJQ" version="21.0.6" type="github">
  <diagram id="prtHgNgQTEPvFCAcTncT" name="Page-1">
    <mxGraphModel dx="932" dy="521" grid="1" gridSize="10" guides="1" tooltips="1" connect="1" arrows="1" fold="1" page="1" pageScale="1" pageWidth="827" pageHeight="1169" math="0" shadow="0">
      <root>
        <mxCell id="0" />
        <mxCell id="1" parent="0" />
        <mxCell id="cPLoAJOtBtmf6qoArx0l-1" value="repo-test.sibur.local" style="rounded=0;whiteSpace=wrap;html=1;" vertex="1" parent="1">
          <mxGeometry x="410" y="480" width="120" height="60" as="geometry" />
        </mxCell>
        <mxCell id="cPLoAJOtBtmf6qoArx0l-2" value="repo.dev002.local" style="rounded=0;whiteSpace=wrap;html=1;" vertex="1" parent="1">
          <mxGeometry x="410" y="230" width="120" height="60" as="geometry" />
        </mxCell>
        <mxCell id="cPLoAJOtBtmf6qoArx0l-3" value="external-repo" style="rounded=0;whiteSpace=wrap;html=1;" vertex="1" parent="1">
          <mxGeometry x="410" y="110" width="120" height="60" as="geometry" />
        </mxCell>
        <mxCell id="cPLoAJOtBtmf6qoArx0l-4" value="" style="endArrow=classic;html=1;rounded=0;exitX=0.5;exitY=1;exitDx=0;exitDy=0;" edge="1" parent="1" source="cPLoAJOtBtmf6qoArx0l-3">
          <mxGeometry width="50" height="50" relative="1" as="geometry">
            <mxPoint x="270" y="540" as="sourcePoint" />
            <mxPoint x="470" y="230" as="targetPoint" />
          </mxGeometry>
        </mxCell>
        <mxCell id="cPLoAJOtBtmf6qoArx0l-5" value="" style="endArrow=classic;html=1;rounded=0;entryX=0.5;entryY=0;entryDx=0;entryDy=0;exitX=0.5;exitY=1;exitDx=0;exitDy=0;" edge="1" parent="1" source="cPLoAJOtBtmf6qoArx0l-2" target="cPLoAJOtBtmf6qoArx0l-6">
          <mxGeometry width="50" height="50" relative="1" as="geometry">
            <mxPoint x="430" y="330" as="sourcePoint" />
            <mxPoint x="430" y="260" as="targetPoint" />
          </mxGeometry>
        </mxCell>
        <mxCell id="cPLoAJOtBtmf6qoArx0l-6" value="Security Pipeline" style="rhombus;whiteSpace=wrap;html=1;" vertex="1" parent="1">
          <mxGeometry x="430" y="340" width="80" height="80" as="geometry" />
        </mxCell>
        <mxCell id="cPLoAJOtBtmf6qoArx0l-7" value="" style="endArrow=classic;html=1;rounded=0;entryX=0.5;entryY=0;entryDx=0;entryDy=0;exitX=0.5;exitY=1;exitDx=0;exitDy=0;" edge="1" parent="1" source="cPLoAJOtBtmf6qoArx0l-6" target="cPLoAJOtBtmf6qoArx0l-1">
          <mxGeometry width="50" height="50" relative="1" as="geometry">
            <mxPoint x="269.86" y="190" as="sourcePoint" />
            <mxPoint x="269.86" y="120" as="targetPoint" />
          </mxGeometry>
        </mxCell>
      </root>
    </mxGraphModel>
  </diagram>
</mxfile>
